<?xml version="1.0" standalone="no"?>
<!DOCTYPE svg PUBLIC "-//W3C//DTD SVG 20010904//EN"
 "http://www.w3.org/TR/2001/REC-SVG-20010904/DTD/svg10.dtd">
<svg version="1.0" xmlns="http://www.w3.org/2000/svg"
 width="454.000000pt" height="454.000000pt" viewBox="0 0 454.000000 454.000000"
 preserveAspectRatio="xMidYMid meet">
<metadata>
Created by potrace 1.11, written by Peter Selinger 2001-2013
</metadata>
<g transform="translate(0.000000,454.000000) scale(0.100000,-0.100000)"
fill="#000000" stroke="none">
<path d="M2080 4529 c-79 -10 -152 -21 -175 -26 -11 -2 -31 -6 -45 -9 -14 -3
-40 -9 -58 -15 -18 -6 -39 -12 -45 -13 -9 -2 -70 -20 -107 -31 -3 -1 -14 -5
-25 -10 -11 -4 -41 -16 -68 -27 -400 -153 -778 -502 -980 -903 -64 -126 -129
-298 -143 -375 -3 -14 -7 -32 -10 -40 -3 -8 -8 -26 -10 -40 -3 -14 -9 -50 -15
-80 -17 -93 -24 -190 -24 -320 1 -119 10 -264 20 -292 2 -7 6 -29 9 -48 6 -40
10 -58 25 -120 7 -25 13 -53 16 -63 6 -25 26 -88 36 -112 5 -11 18 -44 29 -73
56 -147 193 -379 297 -502 170 -204 409 -388 648 -501 91 -43 244 -100 293
-110 4 -1 17 -5 30 -10 26 -10 23 -29 26 191 2 162 -3 190 -30 190 -24 0 -193
77 -278 126 -701 406 -962 1298 -591 2021 264 513 789 837 1355 836 163 0 265
-13 410 -52 266 -71 510 -216 707 -420 l64 -68 220 0 c120 -1 219 2 219 6 0 8
-88 142 -99 151 -3 3 -19 23 -35 45 -30 40 -212 226 -273 277 -130 110 -327
223 -538 308 -59 24 -209 68 -255 75 -14 3 -34 6 -45 8 -22 5 -80 15 -135 23
-57 8 -360 11 -420 3z"/>
<path d="M3883 4501 c-37 -17 -91 -72 -86 -89 1 -4 -2 -11 -7 -17 -14 -18 -8
-100 11 -137 29 -58 78 -89 146 -94 103 -8 182 58 191 159 12 142 -125 237
-255 178z m152 -41 c60 -37 84 -113 55 -176 -22 -49 -45 -69 -92 -82 -50 -14
-99 0 -137 39 -72 72 -53 181 40 227 46 23 88 20 134 -8z"/>
<path d="M3911 4442 c-7 -2 -11 -36 -11 -99 0 -85 2 -94 18 -91 12 2 18 14 20
41 4 49 32 47 48 -3 7 -22 19 -36 32 -38 18 -3 19 0 9 37 -6 23 -15 41 -19 41
-5 0 -1 11 8 25 20 31 12 71 -17 80 -27 9 -72 12 -88 7z m72 -41 c19 -15 12
-37 -13 -44 -25 -6 -41 13 -34 40 6 23 23 24 47 4z"/>
<path d="M2105 3916 l-70 -11 -1 -515 c-1 -283 -2 -522 -3 -530 -1 -14 -37
-16 -281 -15 -179 0 -280 -4 -281 -10 -1 -5 -2 -76 -3 -157 l-1 -148 65 -1
c36 0 164 -1 285 -2 l220 -2 0 -1257 c0 -692 2 -1258 5 -1259 3 0 89 -1 193
-2 181 -2 187 -1 188 18 0 11 1 316 1 677 1 593 3 658 17 662 9 3 36 8 60 11
44 6 181 44 236 65 17 6 31 11 33 11 6 -2 147 72 195 103 143 91 280 224 369
358 61 90 148 261 148 289 0 10 5 21 10 24 6 4 8 10 5 15 -3 5 -1 11 3 14 5 3
9 15 8 28 -1 22 -2 22 -181 22 l-180 0 -50 -92 c-107 -198 -274 -351 -467
-429 -34 -14 -67 -26 -72 -27 -6 -1 -16 -5 -22 -9 -7 -4 -29 -9 -50 -13 -22
-3 -43 -7 -49 -7 -7 -1 -10 137 -10 398 l0 400 688 1 c508 1 687 -1 688 -10 2
-14 2 -11 -5 -66 -25 -199 -104 -425 -209 -600 -76 -127 -208 -281 -332 -387
-133 -113 -360 -238 -518 -284 l-77 -23 0 -181 c0 -100 2 -184 6 -187 3 -3 37
3 77 13 40 11 79 21 87 23 41 11 174 63 248 98 195 91 360 207 527 373 185
183 300 352 419 615 44 99 102 306 122 437 3 21 8 49 10 63 9 41 12 393 4 415
-7 19 -18 20 -871 20 l-864 0 -1 353 c0 194 2 354 5 356 12 8 158 -36 227 -68
160 -74 331 -225 406 -358 l22 -38 193 0 c134 0 193 3 193 11 0 20 -110 240
-130 259 -3 3 -18 23 -35 45 -191 257 -476 437 -795 502 -96 19 -309 24 -405
9z"/>
<path d="M1710 3796 c-138 -69 -229 -134 -340 -247 -115 -115 -108 -108 -167
-194 -44 -65 -137 -245 -127 -245 4 0 2 -6 -3 -12 -9 -12 -34 -78 -39 -103 -1
-5 -7 -28 -12 -50 -53 -195 -47 -455 14 -665 20 -68 23 -76 68 -173 20 -43 36
-80 36 -82 0 -3 28 -46 62 -97 75 -112 245 -285 343 -349 82 -54 223 -129 242
-129 7 0 13 6 14 13 5 60 2 821 -3 830 -4 7 -92 11 -275 11 l-268 1 -1 380
c-1 209 0 387 2 395 3 13 42 15 276 15 l272 0 1 358 c0 197 -2 364 -5 371 -4
11 -25 4 -90 -28z"/>
<path d="M2629 3293 c-1 -21 -1 -184 0 -195 1 -11 231 -10 231 1 0 15 -132
145 -182 180 -41 27 -48 29 -49 14z"/>
<path d="M2638 2299 c-11 -7 -18 -287 -8 -315 5 -13 9 -12 29 5 13 12 28 21
32 21 5 0 44 35 87 78 73 73 161 196 149 209 -8 8 -277 9 -289 2z"/>
</g>
</svg>
